<svg xmlns="http://www.w3.org/2000/svg" width="128" height="128" viewBox="0 0 128 128" role="img" aria-label="Council Assembly icon – collective consciousness gathering" class="cosmic-icon council-assembly">
  <defs>
    <linearGradient id="council-gradient" x1="0" y1="0" x2="128" y2="128" gradientUnits="userSpaceOnUse">
      <stop offset="0%" stopColor="#6c5ce7"/>
      <stop offset="50%" stopColor="#74b9ff"/>
      <stop offset="100%" stopColor="#00cec9"/>
    </linearGradient>
    <radialGradient id="head-glow" cx="50%" cy="50%" r="50%">
      <stop offset="0%" stopColor="#6c5ce7" stopOpacity="0.8"/>
      <stop offset="100%" stopColor="#00cec9" stopOpacity="0"/>
    </radialGradient>
    <filter id="council-glow" x="-20%" y="-20%" width="140%" height="140%">
      <feGaussianBlur in="SourceGraphic" stdDeviation="1" result="blur"/>
      <feMerge>
        <feMergeNode in="blur"/>
        <feMergeNode in="SourceGraphic"/>
      </feMerge>
    </filter>
  </defs>

  <!-- Left Figure -->
  <ellipse transform="matrix(0.9659 -0.2588 0.2588 0.9659 -11.4851 7.6134)" cx="23.2" cy="47.4" rx="7.8" ry="7.8" fill="url(#head-glow)" stroke="#6c5ce7" strokeWidth="1.2"/>
  <path d="M37.4,97.5h-9.5c0,0-0.5,0-0.9,0c-4.3-0.4-8-3.5-9.1-7.8l-6.5-24.2c-0.4-1.4-1.8-2.1-3-1.8c-1.4,0.4-2.1,1.8-1.8,3 l6.4,24.2c1.7,6.3,7,10.9,13.5,11.4c0.6,0.1,1.3,0.1,1.3,0.1h9.5c1.4,0,2.4-1.1,2.5-2.5C39.8,98.5,38.8,97.5,37.4,97.5z" fill="url(#council-gradient)" stroke="#74b9ff" strokeWidth="1.2"/>
  <path d="M48.6,83.9h-13c-0.3-4.9-1.1-9.8-2.3-14.7c-0.1-0.4-0.4-1.4-0.4-1.5c-1.7-6.3-7.7-10.3-14-9.7c0,0-0.8,0.1-1,0.1 c-2.3,0.6-3.7,3-3.1,5.4l6.7,24.9c0.7,2.8,3.1,4.9,6.1,5.1h0.6h15.5v17.8c0,2.7,2.1,4.9,4.9,4.9c2.7,0,4.9-2.1,4.9-4.9V88.8 c0-1.3-0.5-2.5-1.5-3.4C51.1,84.4,49.8,83.9,48.6,83.9z" fill="url(#council-gradient)" stroke="#74b9ff" strokeWidth="1.2"/>

  <!-- Right Figure -->
  <ellipse transform="matrix(0.2588 -0.9659 0.9659 0.2588 31.5932 136.028)" cx="104.4" cy="47.4" rx="7.8" ry="7.8" fill="url(#head-glow)" stroke="#6c5ce7" strokeWidth="1.2"/>
  <path d="M90.2,97.5h9.5c0,0,0.5,0,0.9,0c4.3-0.4,8-3.5,9.1-7.8l6.5-24.2c0.4-1.4,1.8-2.1,3-1.8c1.4,0.4,2.1,1.8,1.8,3l-6.4,24.2 c-1.7,6.3-7,10.9-13.5,11.4c-0.6,0.1-1.3,0.1-1.3,0.1h-9.5c-1.4,0-2.4-1.1-2.5-2.5C87.8,98.5,88.9,97.5,90.2,97.5z" fill="url(#council-gradient)" stroke="#74b9ff" strokeWidth="1.2"/>
  <path d="M79,83.9h13c0.3-4.9,1.1-9.8,2.3-14.7c0.1-0.4,0.4-1.4,0.4-1.5c1.7-6.3,7.7-10.3,14-9.7c0,0,0.8,0.1,1,0.1 c2.3,0.6,3.7,3,3.1,5.4L106,88.4c-0.7,2.8-3.1,4.9-6.1,5.1h-0.6H83.9v17.8c0,2.7-2.1,4.9-4.9,4.9s-4.9-2.1-4.9-4.9V88.8 c0-1.3,0.5-2.5,1.5-3.4C76.5,84.4,77.8,83.9,79,83.9z" fill="url(#council-gradient)" stroke="#74b9ff" strokeWidth="1.2"/>

  <!-- Connecting Table -->
  <rect x="38.8" y="70.8" width="50.6" height="6" fill="#00cec9" stroke="#74b9ff" strokeWidth="1"/>
  
  <!-- Central Figure -->
  <circle cx="64.1" cy="43.2" r="7.2" fill="url(#head-glow)" stroke="#6c5ce7" strokeWidth="1.2"/>
  <path d="M52.5,67.9v-4.3h-0.1c0-0.5,0.4-0.9,0.9-0.9c0.5,0,0.9,0.4,0.9,0.9v4.3h19.9v-4.3h-0.1c0-0.5,0.4-0.9,0.9-0.9 s0.9,0.4,0.9,0.9v4.3h6.2v-6.1c0-5-4-9-9-9h-18c-5,0-9,4-9,9v6.1H52.5z" fill="url(#council-gradient)" stroke="#74b9ff" strokeWidth="1.2" filter="url(#council-glow)"/>
</svg>