<svg xmlns="http://www.w3.org/2000/svg" width="120" height="120" viewBox="0 0 24 24" role="img" aria-label="Bifrost Domain icon – rainbow bridge interface gateway" class="cosmic-icon bifrost-domain">
  <defs>
    <linearGradient id="bifrost-rainbow" x1="0" y1="0" x2="24" y2="24" gradientUnits="userSpaceOnUse">
      <stop offset="0%" stopColor="#6c5ce7"/>    <!-- Purple -->
      <stop offset="25%" stopColor="#74b9ff"/>   <!-- Blue -->
      <stop offset="50%" stopColor="#00cec9"/>    <!-- Teal -->
      <stop offset="75%" stopColor="#55efc4"/>    <!-- Green -->
      <stop offset="100%" stopColor="#e17055"/>   <!-- Orange -->
    </linearGradient>
    <filter id="bifrost-rainbow-glow" x="-50%" y="-50%" width="200%" height="200%">
      <feGaussianBlur in="SourceGraphic" stdDeviation="0.8" result="blur"/>
      <feMerge>
        <feMergeNode in="blur"/>
        <feMergeNode in="SourceGraphic"/>
      </feMerge>
    </filter>
  </defs>

  <!-- Rainbow Bifrost path -->
  <path d="M12.346494,2 C13.0558919,2 13.6561001,2.39325729 14.1463703,3.05722297 C14.545754,3.59810241 14.8906844,4.34424015 15.1766575,5.25989455 C15.7389373,7.0602526 16.0566038,9.46502511 16.0566038,12.0235849 C16.0566038,14.5821447 15.7389373,16.9869172 15.1766575,18.7872753 C14.8906844,19.7029297 14.545754,20.4490674 14.1463703,20.9899468 C13.6561001,21.6539125 13.0558919,22.0471698 12.346494,22.0471698 C10.7233298,22.0471698 9.71939051,20.6289665 9.18391951,18.2085035 C9.16763434,18.1348905 9.16352632,18.061587 9.1703186,17.9903838 L10.8003021,17.9906287 C11.0202123,18.9694558 11.2962173,19.9312563 11.6032904,20.2496177 C11.8079355,20.4617857 12.0156954,20.5377358 12.346494,20.5377358 C12.3525053,20.5377358 12.3600292,20.5365147 12.3722666,20.5325354 C12.3950863,20.5251152 12.4240204,20.5109595 12.4588816,20.4881184 C12.5594824,20.4222046 12.6765815,20.3055866 12.8002002,20.1381716 C13.0884945,19.7477389 13.3684471,19.1421582 13.6102121,18.3680533 C14.12669,16.7143481 14.4260072,14.4484812 14.4260072,12.0235849 C14.4260072,9.5986886 14.12669,7.33282174 13.6102121,5.67911654 C13.3684471,4.90501164 13.0884945,4.29943089 12.8002002,3.90899817 C12.6765815,3.74158318 12.5594824,3.62496519 12.4588816,3.55905144 C12.4240204,3.53621032 12.3950863,3.52205463 12.3722666,3.51463437 C12.3600292,3.51065511 12.3525053,3.50943396 12.346494,3.50943396 C12.0809615,3.50943396 11.8464773,3.634002 11.5903006,3.97294969 C11.2639443,4.40475194 10.979461,5.11005339 10.7598216,6.10291376 L9.09890062,6.10249714 C9.36411395,4.76995886 9.74433512,3.78229785 10.2542379,3.10764503 C10.8024914,2.38225016 11.5220309,2 12.346494,2 Z M12.5660377,14.5 L12.5660377,16.009434 L4.64150943,16.009434 C4.22469075,16.009434 3.88679245,15.6715357 3.88679245,15.254717 C3.88679245,14.8378983 4.22469075,14.5 4.64150943,14.5 L12.5660377,14.5 Z M21.245283,12.8962669 C21.6621017,12.8962669 22,13.2341652 22,13.6509839 C22,14.0678025 21.6621017,14.4057008 21.245283,14.4057008 L17.5018248,14.4066389 C17.5638331,13.915011 17.6081639,13.4104043 17.6339123,12.8966965 L21.245283,12.8962669 Z M12.5660377,11.2924528 L12.5660377,12.8018868 L2.75471698,12.8018868 C2.3378983,12.8018868 2,12.4639885 2,12.0471698 C2,11.6303511 2.3378983,11.2924528 2.75471698,11.2924528 L12.5660377,11.2924528 Z M17.5506141,9.68763695 L21.245283,9.68871971 C21.6621017,9.68871971 22,10.026618 22,10.4434367 C22,10.8255205 21.7160716,11.1412892 21.3476936,11.191264 L21.245283,11.1981537 L17.6508837,11.1977701 C17.6355715,10.6852887 17.601857,10.1806621 17.5506141,9.68763695 Z M12.5660377,8.08490566 L12.5660377,9.59433962 L4.64150943,9.59433962 C4.22469075,9.59433962 3.88679245,9.25644132 3.88679245,8.83962264 C3.88679245,8.45753885 4.17072089,8.1417701 4.53909881,8.09179534 L4.64150943,8.08490566 L12.5660377,8.08490566 Z" 
        fill="url(#bifrost-rainbow)" 
        stroke="#00cec9" 
        strokeWidth="0.8" 
        filter="url(#bifrost-rainbow-glow)"/>
</svg>