<svg xmlns="http://www.w3.org/2000/svg" width="120" height="120" viewBox="0 0 512 512" role="img" aria-label="Cosmic Domain icon – meta-cognition and universal patterns" class="cosmic-icon cosmic-domain">
  <defs>
    <linearGradient id="cosmic-gradient" x1="0" y1="0" x2="512" y2="512" gradientUnits="userSpaceOnUse">
      <stop offset="0%" stopColor="#6c5ce7"/>
      <stop offset="50%" stopColor="#74b9ff"/>
      <stop offset="100%" stopColor="#00cec9"/>
    </linearGradient>
    <radialGradient id="orbit-glow" cx="50%" cy="50%" r="50%">
      <stop offset="0%" stopColor="#74b9ff" stopOpacity="0.8"/>
      <stop offset="100%" stopColor="#00cec9" stopOpacity="0"/>
    </radialGradient>
  </defs>

  <!-- Main cosmic orbits - thinned and gradient applied -->
  <path d="M437.019,74.981C388.668,26.628,324.38,0,256,0S123.332,26.628,74.981,74.981S0,187.62,0,256 s26.628,132.668,74.981,181.019S187.62,512,256,512s132.668-26.628,181.019-74.981S512,324.38,512,256 S485.372,123.332,437.019,74.981z M256,495.413c-63.949,0-124.071-24.903-169.291-70.122 C41.491,380.071,16.587,319.949,16.587,256S41.491,131.929,86.709,86.709c23.8-23.8,51.731-41.962,82.172-53.837 c-27.585,24.238-45.028,59.755-45.028,99.275c0,72.867,59.28,132.147,132.147,132.147c63.72,0,115.559,51.839,115.559,115.559 S319.72,495.413,256,495.413z M425.291,425.291c-23.8,23.8-51.731,41.962-82.172,53.837 c27.585-24.238,45.028-59.755,45.028-99.275c0-72.867-59.28-132.147-132.147-132.147c-63.72,0-115.559-51.839-115.559-115.559 S192.28,16.587,256,16.587c63.949,0,124.071,24.903,169.291,70.122c45.219,45.22,70.122,105.341,70.122,169.291 S470.509,380.071,425.291,425.291z" 
        fill="none" 
        stroke="url(#cosmic-gradient)" 
        strokeWidth="4" 
        stroke-linecap="round"/>

  <!-- Central nodes with glow effects -->
  <circle cx="256" cy="379.853" r="20" fill="url(#orbit-glow)" stroke="#74b9ff" strokeWidth="1.5"/>
  <circle cx="256" cy="132.147" r="20" fill="url(#orbit-glow)" stroke="#74b9ff" strokeWidth="1.5"/>
  
  <!-- Orbital paths - thinned and styled -->
  <path d="M256,327.326c-28.963,0-52.527,23.564-52.527,52.527c0,28.963,23.564,52.527,52.527,52.527s52.527-23.564,52.527-52.527 C308.527,350.89,284.963,327.326,256,327.326z M256,415.793c-19.817,0-35.94-16.123-35.94-35.94 c0-19.817,16.123-35.94,35.94-35.94c19.816,0,35.94,16.123,35.94,35.94C291.94,399.67,275.816,415.793,256,415.793z" 
        fill="none" 
        stroke="#00cec9" 
        strokeWidth="1.8" 
        stroke-linecap="round"/>
        
  <path d="M256,79.62c-28.963,0-52.527,23.564-52.527,52.527s23.564,52.527,52.527,52.527s52.527-23.564,52.527-52.527 S284.963,79.62,256,79.62z M256,168.086c-19.817,0-35.94-16.123-35.94-35.94c0-19.816,16.123-35.94,35.94-35.94 c19.816,0,35.94,16.123,35.94,35.94C291.94,151.963,275.816,168.086,256,168.086z" 
        fill="none" 
        stroke="#00cec9" 
        strokeWidth="1.8" 
        stroke-linecap="round"/>
</svg>