<svg xmlns="http://www.w3.org/2000/svg" width="120" height="120" viewBox="0 0 24 24" role="img" aria-label="Infinity icon – eternal flow and limitless potential" class="cosmic-icon infinity">
  <defs>
    <linearGradient id="infinity-gradient" x1="0" y1="0" x2="24" y2="24" gradientUnits="userSpaceOnUse">
      <stop offset="0%" stopColor="#6c5ce7"/>
      <stop offset="50%" stopColor="#74b9ff"/>
      <stop offset="100%" stopColor="#00cec9"/>
    </linearGradient>
    <filter id="infinity-glow" x="-50%" y="-50%" width="200%" height="200%">
      <feGaussianBlur in="SourceGraphic" stdDeviation="0.8" result="blur"/>
      <feMerge>
        <feMergeNode in="blur"/>
        <feMergeNode in="SourceGraphic"/>
      </feMerge>
    </filter>
  </defs>

  <!-- Original infinity path with quantum styling -->
  <path fill-rule="evenodd" d="M5.25 8.5c-2.032 0-3.75 1.895-3.75 3.75S3.218 16 5.25 16c1.017 0 2.014-.457 3.062-1.253.89-.678 1.758-1.554 2.655-2.497-.897-.943-1.765-1.82-2.655-2.497C7.264 8.957 6.267 8.5 5.25 8.5zM12 11.16c-.887-.933-1.813-1.865-2.78-2.6C8.048 7.667 6.733 7 5.25 7 2.343 7 0 9.615 0 12.25s2.343 5.25 5.25 5.25c1.483 0 2.798-.668 3.97-1.56.967-.735 1.893-1.667 2.78-2.6.887.933 1.813 1.865 2.78 2.6 1.172.892 2.487 1.56 3.97 1.56 2.907 0 5.25-2.615 5.25-5.25S21.657 7 18.75 7c-1.483 0-2.798.668-3.97 1.56-.967.735-1.893 1.667-2.78 2.6zm1.033 1.09c.897.943 1.765 1.82 2.655 2.497C16.736 15.543 17.733 16 18.75 16c2.032 0 3.75-1.895 3.75-3.75S20.782 8.5 18.75 8.5c-1.017 0-2.014.457-3.062 1.253-.89.678-1.758 1.554-2.655 2.497z" 
        fill="url(#infinity-gradient)" 
        stroke="#00cec9" 
        strokeWidth="0.3" 
        filter="url(#infinity-glow)"/>
</svg>