<svg viewBox="0 0 24 24" xmlns="http://www.w3.org/2000/svg" role="img" aria-label="Facebook social connection" class="cosmic-icon social-facebook">
  <defs>
    <linearGradient id="facebook-gradient" x1="0" y1="0" x2="24" y2="24" gradientUnits="userSpaceOnUse">
      <stop offset="0%" stopColor="#6c5ce7"/>
      <stop offset="50%" stopColor="#74b9ff"/>
      <stop offset="100%" stopColor="#00cec9"/>
    </linearGradient>
    <filter id="facebook-glow" x="-50%" y="-50%" width="200%" height="200%">
      <feGaussianBlur in="SourceGraphic" stdDeviation="0.6" result="blur"/>
      <feMerge>
        <feMergeNode in="blur"/>
        <feMergeNode in="SourceGraphic"/>
      </feMerge>
    </filter>
  </defs>

  <!-- Original Facebook path with quantum styling -->
  <path fill-rule="evenodd" clip-rule="evenodd" d="M2 6C2 3.79086 3.79086 2 6 2H18C20.2091 2 22 3.79086 22 6V18C22 20.2091 20.2091 22 18 22H6C3.79086 22 2 20.2091 2 18V6ZM6 4C4.89543 4 4 4.89543 4 6V18C4 19.1046 4.89543 20 6 20H12V13H11C10.4477 13 10 12.5523 10 12C10 11.4477 10.4477 11 11 11H12V9.5C12 7.567 13.567 6 15.5 6H16.1C16.6523 6 17.1 6.44772 17.1 7C17.1 7.55228 16.6523 8 16.1 8H15.5C14.6716 8 14 8.67157 14 9.5V11H16.1C16.6523 11 17.1 11.4477 17.1 12C17.1 12.5523 16.6523 13 16.1 13H14V20H18C19.1046 20 20 19.1046 20 18V6C20 4.89543 19.1046 4 18 4H6Z" 
        fill="url(#facebook-gradient)" 
        stroke="#00cec9" 
        strokeWidth="0.3" 
        filter="url(#facebook-glow)"/>
</svg>