<svg xmlns="http://www.w3.org/2000/svg" width="120" height="120" viewBox="-143 145 512 512" role="img" aria-label="Quantum Social Gateway icon – cosmic connection bridge" class="cosmic-icon quantum-social">
  <defs>
    <linearGradient id="social-gradient" x1="-143" y1="145" x2="369" y2="657" gradientUnits="userSpaceOnUse">
      <stop offset="0%" stopColor="#6c5ce7"/>
      <stop offset="50%" stopColor="#74b9ff"/>
      <stop offset="100%" stopColor="#00cec9"/>
    </linearGradient>
    <filter id="social-glow" x="-50%" y="-50%" width="200%" height="200%">
      <feGaussianBlur in="SourceGraphic" stdDeviation="1.8" result="blur"/>
      <feMerge>
        <feMergeNode in="blur"/>
        <feMergeNode in="SourceGraphic"/>
      </feMerge>
    </filter>
  </defs>

  <!-- Outer container with cosmic styling -->
  <path d="M329,145h-432c-22.1,0-40,17.9-40,40v432c0,22.1,17.9,40,40,40h432c22.1,0,40-17.9,40-40V185C369,162.9,351.1,145,329,145z M339,617c0,5.5-4.5,10-10,10h-432c-5.5,0-10-4.5-10-10V185c0-5.5,4.5-10,10-10h432c5.5,0,10,4.5,10,10V617z" 
        fill="none" 
        stroke="url(#social-gradient)" 
        strokeWidth="3" 
        filter="url(#social-glow)"/>
  
  <!-- Main bird path transformed -->
  <path d="M234.3,313.1c-10.2,6-21.4,10.4-33.4,12.8c-9.6-10.2-23.3-16.6-38.4-16.6c-29,0-52.6,23.6-52.6,52.6c0,4.1,0.4,8.1,1.4,12 c-43.7-2.2-82.5-23.1-108.4-55c-4.5,7.8-7.1,16.8-7.1,26.5c0,18.2,9.3,34.3,23.4,43.8c-8.6-0.3-16.7-2.7-23.8-6.6v0.6 c0,25.5,18.1,46.8,42.2,51.6c-4.4,1.2-9.1,1.9-13.9,1.9c-3.4,0-6.7-0.3-9.9-0.9c6.7,20.9,26.1,36.1,49.1,36.5 c-18,14.1-40.7,22.5-65.3,22.5c-4.2,0-8.4-0.2-12.6-0.7c23.3,14.9,50.9,23.6,80.6,23.6c96.8,0,149.7-80.2,149.7-149.7 c0-2.3,0-4.6-0.1-6.8c10.3-7.5,19.2-16.7,26.2-27.3c-9.4,4.2-19.6,7-30.2,8.3C222.1,335.7,230.4,325.4,234.3,313.1z" 
        fill="url(#social-gradient)" 
        filter="url(#social-glow)"/>
</svg>